{
  "accessors": [
    {
      "bufferView": 2,
      "componentType": 5126,
      "count": 720,
      "max": [
        1958.508056640625,
        331.9588928222656,
        458.4556884765625
      ],
      "min": [
        283.87530517578125,
        -2644.822509765625,
        458.4556884765625
      ],
      "type": "VEC3"
    },
    {
      "bufferView": 2,
      "byteOffset": 8640,
      "componentType": 5126,
      "count": 720,
      "max": [
        0.0,
        0.0,
        1.0
      ],
      "min": [
        0.0,
        0.0,
        -1.0
      ],
      "type": "VEC3"
    },
    {
      "bufferView": 3,
      "componentType": 5126,
      "count": 720,
      "max": [
        0.9933047294616699,
        0.9914873242378235,
        0.0,
        1.0
      ],
      "min": [
        -0.8796557784080505,
        -0.9708929061889648,
        0.0,
        -1.0
      ],
      "type": "VEC4"
    },
    {
      "bufferView": 1,
      "componentType": 5126,
      "count": 720,
      "max": [
        -0.1681963950395584,
        0.8410887718200684
      ],
      "min": [
        -0.8277379274368286,
        0.18154729902744293
      ],
      "type": "VEC2"
    },
    {
      "bufferView": 0,
      "componentType": 5125,
      "count": 1980,
      "type": "SCALAR"
    },
    {
      "bufferView": 2,
      "byteOffset": 17280,
      "componentType": 5126,
      "count": 37,
      "max": [
        1954.13330078125,
        325.95794677734375,
        455.3306884765625
      ],
      "min": [
        289.87530517578125,
        -2652.606689453125,
        419.3306884765625
      ],
      "type": "VEC3"
    },
    {
      "bufferView": 0,
      "byteOffset": 7920,
      "componentType": 5125,
      "count": 52,
      "type": "SCALAR"
    },
    {
      "bufferView": 2,
      "byteOffset": 17724,
      "componentType": 5126,
      "count": 10144,
      "max": [
        5246.0751953125,
        7784.02197265625,
        754.8229370117188
      ],
      "min": [
        -8995.9130859375,
        -6881.16162109375,
        214.90029907226563
      ],
      "type": "VEC3"
    },
    {
      "bufferView": 2,
      "byteOffset": 139452,
      "componentType": 5126,
      "count": 10144,
      "max": [
        0.9173377156257629,
        0.7674028873443604,
        1.0
      ],
      "min": [
        -0.9173377156257629,
        -0.7674028873443604,
        -1.0
      ],
      "type": "VEC3"
    },
    {
      "bufferView": 3,
      "byteOffset": 11520,
      "componentType": 5126,
      "count": 10144,
      "max": [
        0.2770586907863617,
        0.032390691339969635,
        0.7815079689025879,
        1.0
      ],
      "min": [
        -0.9998701214790344,
        -0.9610504508018494,
        -0.9173420071601868,
        -1.0
      ],
      "type": "VEC4"
    },
    {
      "bufferView": 1,
      "byteOffset": 5760,
      "componentType": 5126,
      "count": 10144,
      "max": [
        45.4362907409668,
        18.171510696411133
      ],
      "min": [
        -17.891069412231445,
        -35.76055145263672
      ],
      "type": "VEC2"
    },
    {
      "bufferView": 0,
      "byteOffset": 8128,
      "componentType": 5125,
      "count": 48288,
      "type": "SCALAR"
    },
    {
      "bufferView": 2,
      "byteOffset": 261180,
      "componentType": 5126,
      "count": 17649,
      "max": [
        1953.650634765625,
        346.8811950683594,
        546.3193359375
      ],
      "min": [
        -358.0458068847656,
        -2859.3955078125,
        412.4837951660156
      ],
      "type": "VEC3"
    },
    {
      "bufferView": 2,
      "byteOffset": 472968,
      "componentType": 5126,
      "count": 17649,
      "max": [
        1.0,
        1.0,
        1.0
      ],
      "min": [
        -1.0,
        -1.0,
        -1.0
      ],
      "type": "VEC3"
    },
    {
      "bufferView": 3,
      "byteOffset": 173824,
      "componentType": 5126,
      "count": 17649,
      "max": [
        0.9999998807907104,
        1.0,
        1.0,
        1.0
      ],
      "min": [
        -0.9999998807907104,
        -1.0,
        -1.0,
        -1.0
      ],
      "type": "VEC4"
    },
    {
      "bufferView": 1,
      "byteOffset": 86912,
      "componentType": 5126,
      "count": 17649,
      "max": [
        49.31850814819336,
        115.1365966796875
      ],
      "min": [
        -79.96318817138672,
        -0.588775098323822
      ],
      "type": "VEC2"
    },
    {
      "bufferView": 0,
      "byteOffset": 201280,
      "componentType": 5125,
      "count": 40122,
      "type": "SCALAR"
    },
    {
      "bufferView": 2,
      "byteOffset": 684756,
      "componentType": 5126,
      "count": 4562,
      "max": [
        1874.9779052734375,
        4919.798828125,
        429.5967102050781
      ],
      "min": [
        -7012.62939453125,
        -6881.1611328125,
        423.4721984863281
      ],
      "type": "VEC3"
    },
    {
      "bufferView": 2,
      "byteOffset": 739500,
      "componentType": 5126,
      "count": 4562,
      "max": [
        0.9999812841415405,
        0.8381720185279846,
        1.0
      ],
      "min": [
        -0.9999812841415405,
        -0.8381720185279846,
        -1.0
      ],
      "type": "VEC3"
    },
    {
      "bufferView": 3,
      "byteOffset": 456208,
      "componentType": 5126,
      "count": 4562,
      "max": [
        0.9997998476028442,
        0.9999736547470093,
        1.0,
        1.0
      ],
      "min": [
        -0.9073977470397949,
        -0.9999803304672241,
        -1.0,
        -1.0
      ],
      "type": "VEC4"
    },
    {
      "bufferView": 1,
      "byteOffset": 228104,
      "componentType": 5126,
      "count": 4562,
      "max": [
        1.0199480056762695,
        50.739688873291016
      ],
      "min": [
        -0.02665008045732975,
        -0.012482630088925362
      ],
      "type": "VEC2"
    },
    {
      "bufferView": 0,
      "byteOffset": 361768,
      "componentType": 5125,
      "count": 24864,
      "type": "SCALAR"
    },
    {
      "bufferView": 2,
      "byteOffset": 794244,
      "componentType": 5126,
      "count": 112,
      "max": [
        1953.650634765625,
        277.7451171875,
        546.3193359375
      ],
      "min": [
        -358.0458068847656,
        -2859.2080078125,
        485.3027038574219
      ],
      "type": "VEC3"
    },
    {
      "bufferView": 2,
      "byteOffset": 795588,
      "componentType": 5126,
      "count": 112,
      "max": [
        0.8660253882408142,
        1.0,
        3.33561888107978e-30
      ],
      "min": [
        -0.8660253882408142,
        -1.0,
        -3.33561888107978e-30
      ],
      "type": "VEC3"
    },
    {
      "bufferView": 1,
      "byteOffset": 264600,
      "componentType": 5126,
      "count": 112,
      "max": [
        1.0075620412826538,
        1.010138988494873
      ],
      "min": [
        -0.007596808020025492,
        -0.0011299729812890291
      ],
      "type": "VEC2"
    },
    {
      "bufferView": 0,
      "byteOffset": 461224,
      "componentType": 5125,
      "count": 312,
      "type": "SCALAR"
    },
    {
      "bufferView": 2,
      "byteOffset": 796932,
      "componentType": 5126,
      "count": 1500,
      "max": [
        1958.508056640625,
        331.9588928222656,
        458.4556884765625
      ],
      "min": [
        283.87530517578125,
        -2644.822509765625,
        411.8931884765625
      ],
      "type": "VEC3"
    },
    {
      "bufferView": 2,
      "byteOffset": 814932,
      "componentType": 5126,
      "count": 1500,
      "max": [
        1.0,
        1.0,
        0.0
      ],
      "min": [
        -1.0,
        -1.0,
        0.0
      ],
      "type": "VEC3"
    },
    {
      "bufferView": 3,
      "byteOffset": 529200,
      "componentType": 5126,
      "count": 1500,
      "max": [
        1.0,
        1.0,
        0.0,
        1.0
      ],
      "min": [
        -1.0,
        -1.0,
        0.0,
        -1.0
      ],
      "type": "VEC4"
    },
    {
      "bufferView": 1,
      "byteOffset": 265496,
      "componentType": 5126,
      "count": 1500,
      "max": [
        3.213901996612549,
        0.5237972736358643
      ],
      "min": [
        0.9026201963424683,
        -0.19191579520702362
      ],
      "type": "VEC2"
    },
    {
      "bufferView": 0,
      "byteOffset": 462472,
      "componentType": 5125,
      "count": 4320,
      "type": "SCALAR"
    }
  ],
  "asset": {
    "extras": {
      "author": "jimbogies (https://sketchfab.com/jimbogies)",
      "license": "CC-BY-4.0 (http://creativecommons.org/licenses/by/4.0/)",
      "source": "https://sketchfab.com/3d-models/american-road-curve-ahead-337a8213f1b2463baf01973bf9c68f8a",
      "title": "American Road Curve Ahead"
    },
    "generator": "Sketchfab-12.66.0",
    "version": "2.0"
  },
  "bufferViews": [
    {
      "buffer": 0,
      "byteLength": 479752,
      "name": "floatBufferViews",
      "target": 34963
    },
    {
      "buffer": 0,
      "byteLength": 277496,
      "byteOffset": 479752,
      "byteStride": 8,
      "name": "floatBufferViews",
      "target": 34962
    },
    {
      "buffer": 0,
      "byteLength": 832932,
      "byteOffset": 757248,
      "byteStride": 12,
      "name": "floatBufferViews",
      "target": 34962
    },
    {
      "buffer": 0,
      "byteLength": 553200,
      "byteOffset": 1590180,
      "byteStride": 16,
      "name": "floatBufferViews",
      "target": 34962
    }
  ],
  "buffers": [
    {
      "byteLength": 2143380,
      "uri": "scene.bin"
    }
  ],
  "images": [
    {
      "uri": "textures/TreeTrunk_baseColor.jpeg"
    },
    {
      "uri": "textures/TreeTrunk_metallicRoughness.png"
    },
    {
      "uri": "textures/TreeTrunk_normal.png"
    },
    {
      "uri": "textures/Grass02_baseColor.jpeg"
    },
    {
      "uri": "textures/Grass02_metallicRoughness.png"
    },
    {
      "uri": "textures/Grass02_normal.png"
    },
    {
      "uri": "textures/Metal_Corrugated_009_basecolor_baseColor.jpeg"
    },
    {
      "uri": "textures/Metal_Corrugated_009_basecolor_metallicRoughness.png"
    },
    {
      "uri": "textures/Metal_Corrugated_009_basecolor_normal.png"
    },
    {
      "uri": "textures/RoadLines_baseColor.jpeg"
    },
    {
      "uri": "textures/RoadLines_metallicRoughness.png"
    },
    {
      "uri": "textures/RoadLines_normal.png"
    },
    {
      "uri": "textures/Curve_baseColor.jpeg"
    },
    {
      "uri": "textures/Bark_baseColor.jpeg"
    },
    {
      "uri": "textures/Bark_metallicRoughness.png"
    },
    {
      "uri": "textures/Bark_normal.png"
    }
  ],
  "materials": [
    {
      "name": "TreeTrunk",
      "normalTexture": {
        "index": 2
      },
      "pbrMetallicRoughness": {
        "baseColorTexture": {
          "index": 0
        },
        "metallicFactor": 0.0,
        "metallicRoughnessTexture": {
          "index": 1
        }
      }
    },
    {
      "name": "edge_color000255",
      "pbrMetallicRoughness": {
        "metallicFactor": 0.0,
        "roughnessFactor": 0.6
      }
    },
    {
      "name": "Grass02",
      "normalTexture": {
        "index": 5
      },
      "pbrMetallicRoughness": {
        "baseColorTexture": {
          "index": 3
        },
        "metallicFactor": 0.0,
        "metallicRoughnessTexture": {
          "index": 4
        }
      }
    },
    {
      "name": "Metal_Corrugated_009_basecolor",
      "normalTexture": {
        "index": 8,
        "scale": 0.5124445944
      },
      "pbrMetallicRoughness": {
        "baseColorTexture": {
          "index": 6
        },
        "metallicFactor": 0.4030014774820787,
        "metallicRoughnessTexture": {
          "index": 7
        },
        "roughnessFactor": 0.5063644212587175
      }
    },
    {
      "name": "RoadLines",
      "normalTexture": {
        "index": 11
      },
      "pbrMetallicRoughness": {
        "baseColorTexture": {
          "index": 9
        },
        "metallicFactor": 0.0,
        "metallicRoughnessTexture": {
          "index": 10
        }
      }
    },
    {
      "name": "Curve",
      "pbrMetallicRoughness": {
        "baseColorTexture": {
          "index": 12
        },
        "metallicFactor": 0.646208404,
        "roughnessFactor": 0.2874781874
      }
    },
    {
      "name": "Bark",
      "normalTexture": {
        "index": 15
      },
      "pbrMetallicRoughness": {
        "baseColorTexture": {
          "index": 13
        },
        "metallicFactor": 0.0,
        "metallicRoughnessTexture": {
          "index": 14
        }
      }
    }
  ],
  "meshes": [
    {
      "name": "Material2",
      "primitives": [
        {
          "attributes": {
            "NORMAL": 1,
            "POSITION": 0,
            "TANGENT": 2,
            "TEXCOORD_0": 3
          },
          "indices": 4,
          "material": 0,
          "mode": 4
        }
      ]
    },
    {
      "name": "Material2",
      "primitives": [
        {
          "attributes": {
            "POSITION": 5
          },
          "indices": 6,
          "material": 1,
          "mode": 1
        }
      ]
    },
    {
      "name": "Material2",
      "primitives": [
        {
          "attributes": {
            "NORMAL": 8,
            "POSITION": 7,
            "TANGENT": 9,
            "TEXCOORD_0": 10
          },
          "indices": 11,
          "material": 2,
          "mode": 4
        }
      ]
    },
    {
      "name": "Material2",
      "primitives": [
        {
          "attributes": {
            "NORMAL": 13,
            "POSITION": 12,
            "TANGENT": 14,
            "TEXCOORD_0": 15
          },
          "indices": 16,
          "material": 3,
          "mode": 4
        }
      ]
    },
    {
      "name": "Material2",
      "primitives": [
        {
          "attributes": {
            "NORMAL": 18,
            "POSITION": 17,
            "TANGENT": 19,
            "TEXCOORD_0": 20
          },
          "indices": 21,
          "material": 4,
          "mode": 4
        }
      ]
    },
    {
      "name": "Material2",
      "primitives": [
        {
          "attributes": {
            "NORMAL": 23,
            "POSITION": 22,
            "TEXCOORD_0": 24
          },
          "indices": 25,
          "material": 5,
          "mode": 4
        }
      ]
    },
    {
      "name": "Material2",
      "primitives": [
        {
          "attributes": {
            "NORMAL": 27,
            "POSITION": 26,
            "TANGENT": 28,
            "TEXCOORD_0": 29
          },
          "indices": 30,
          "material": 6,
          "mode": 4
        }
      ]
    }
  ],
  "nodes": [
    {
      "children": [
        1
      ],
      "matrix": [
        1.0,
        0.0,
        0.0,
        0.0,
        0.0,
        2.220446049250313e-16,
        -1.0,
        0.0,
        0.0,
        1.0,
        2.220446049250313e-16,
        0.0,
        0.0,
        0.0,
        0.0,
        1.0
      ],
      "name": "Sketchfab_model"
    },
    {
      "children": [
        2,
        3,
        4,
        5,
        6,
        7,
        8,
        9
      ],
      "name": "Collada visual scene group"
    },
    {
      "mesh": 0,
      "name": "Material2"
    },
    {
      "mesh": 1,
      "name": "Material2"
    },
    {
      "mesh": 2,
      "name": "Material2"
    },
    {
      "mesh": 3,
      "name": "Material2"
    },
    {
      "mesh": 4,
      "name": "Material2"
    },
    {
      "mesh": 5,
      "name": "Material2"
    },
    {
      "mesh": 6,
      "name": "Material2"
    },
    {
      "children": [
        10
      ],
      "name": "SketchUp"
    },
    {
      "children": [
        11
      ],
      "matrix": [
        0.9752049,
        0.221304,
        6.938894e-18,
        0.0,
        -0.02693576,
        0.1186959,
        0.9925652,
        0.0,
        0.2196587,
        -0.9679545,
        0.1217138,
        0.0,
        2124.716,
        -3165.427,
        546.1205,
        1.0
      ],
      "name": "skp_camera_Last_Saved_SketchUp_View"
    },
    {
      "name": "ID1"
    }
  ],
  "samplers": [
    {
      "magFilter": 9729,
      "minFilter": 9987,
      "wrapS": 10497,
      "wrapT": 10497
    }
  ],
  "scene": 0,
  "scenes": [
    {
      "name": "Sketchfab_Scene",
      "nodes": [
        0
      ]
    }
  ],
  "textures": [
    {
      "sampler": 0,
      "source": 0
    },
    {
      "sampler": 0,
      "source": 1
    },
    {
      "sampler": 0,
      "source": 2
    },
    {
      "sampler": 0,
      "source": 3
    },
    {
      "sampler": 0,
      "source": 4
    },
    {
      "sampler": 0,
      "source": 5
    },
    {
      "sampler": 0,
      "source": 6
    },
    {
      "sampler": 0,
      "source": 7
    },
    {
      "sampler": 0,
      "source": 8
    },
    {
      "sampler": 0,
      "source": 9
    },
    {
      "sampler": 0,
      "source": 10
    },
    {
      "sampler": 0,
      "source": 11
    },
    {
      "sampler": 0,
      "source": 12
    },
    {
      "sampler": 0,
      "source": 13
    },
    {
      "sampler": 0,
      "source": 14
    },
    {
      "sampler": 0,
      "source": 15
    }
  ]
}
