{
  "accessors": [
    {
      "bufferView": 2,
      "componentType": 5126,
      "count": 3516,
      "max": [
        0.27094748616218567,
        1.0057016611099243,
        0.2555437386035919
      ],
      "min": [
        -0.30837249755859375,
        -1.0682069063186646,
        -0.6160343289375305
      ],
      "type": "VEC3"
    },
    {
      "bufferView": 2,
      "byteOffset": 42192,
      "componentType": 5126,
      "count": 3516,
      "max": [
        0.9999947547912598,
        0.9995875358581543,
        0.9997673034667969
      ],
      "min": [
        -0.9999951720237732,
        -0.9996660947799683,
        -0.9999759793281555
      ],
      "type": "VEC3"
    },
    {
      "bufferView": 1,
      "componentType": 5126,
      "count": 3516,
      "max": [
        0.9493569135665894,
        0.9972356557846069
      ],
      "min": [
        0.0027643442153930664,
        0.0027643763460218906
      ],
      "type": "VEC2"
    },
    {
      "bufferView": 0,
      "componentType": 5125,
      "count": 15414,
      "type": "SCALAR"
    }
  ],
  "asset": {
    "extras": {
      "author": "widthRider (https://sketchfab.com/widthRider)",
      "license": "CC-BY-4.0 (http://creativecommons.org/licenses/by/4.0/)",
      "source": "https://sketchfab.com/3d-models/concrete-road-barrier-photoscanned-a09622c043724a1b92e7920b22edb6bf",
      "title": "concrete road barrier photoscanned"
    },
    "generator": "Sketchfab-15.25.0",
    "version": "2.0"
  },
  "bufferViews": [
    {
      "buffer": 0,
      "byteLength": 61656,
      "name": "floatBufferViews",
      "target": 34963
    },
    {
      "buffer": 0,
      "byteLength": 28128,
      "byteOffset": 61656,
      "byteStride": 8,
      "name": "floatBufferViews",
      "target": 34962
    },
    {
      "buffer": 0,
      "byteLength": 84384,
      "byteOffset": 89784,
      "byteStride": 12,
      "name": "floatBufferViews",
      "target": 34962
    }
  ],
  "buffers": [
    {
      "byteLength": 174168,
      "uri": "scene.bin"
    }
  ],
  "extensionsRequired": [
    "KHR_materials_pbrSpecularGlossiness"
  ],
  "extensionsUsed": [
    "KHR_materials_pbrSpecularGlossiness"
  ],
  "images": [
    {
      "uri": "textures/concreteRoadBarrier_low_diffuse.png"
    }
  ],
  "materials": [
    {
      "doubleSided": true,
      "extensions": {
        "KHR_materials_pbrSpecularGlossiness": {
          "diffuseFactor": [
            1.0,
            1.0,
            1.0,
            1.0
          ],
          "diffuseTexture": {
            "index": 0
          },
          "glossinessFactor": 0.34323609367190455,
          "specularFactor": [
            0.0,
            0.0,
            0.0
          ]
        }
      },
      "name": "concreteRoadBarrier_low"
    }
  ],
  "meshes": [
    {
      "name": "road_barrier_mid_poly_concreteRoadBarrier_low_0",
      "primitives": [
        {
          "attributes": {
            "NORMAL": 1,
            "POSITION": 0,
            "TEXCOORD_0": 2
          },
          "indices": 3,
          "material": 0,
          "mode": 4
        }
      ]
    }
  ],
  "nodes": [
    {
      "children": [
        1
      ],
      "matrix": [
        1.0,
        0.0,
        0.0,
        0.0,
        0.0,
        2.220446049250313e-16,
        -1.0,
        0.0,
        0.0,
        1.0,
        2.220446049250313e-16,
        0.0,
        0.0,
        0.0,
        0.0,
        1.0
      ],
      "name": "Sketchfab_model"
    },
    {
      "children": [
        2
      ],
      "matrix": [
        0.009999999776482582,
        0.0,
        0.0,
        0.0,
        0.0,
        0.0,
        0.009999999776482582,
        0.0,
        0.0,
        -0.009999999776482582,
        0.0,
        0.0,
        0.0,
        0.0,
        0.0,
        1.0
      ],
      "name": "concrete_road_barrier_LOD_0.fbx"
    },
    {
      "children": [
        3
      ],
      "name": "RootNode"
    },
    {
      "children": [
        4
      ],
      "matrix": [
        100.0,
        9.352473755258342e-16,
        -1.97049789374948e-17,
        0.0,
        1.9705086030860407e-17,
        -4.211995406447941,
        -99.91124845990672,
        0.0,
        -9.35247301884062e-16,
        99.91124845990672,
        -4.211995406447941,
        0.0,
        0.0,
        58.715576171875,
        0.0,
        1.0
      ],
      "name": "road_barrier_mid_poly"
    },
    {
      "mesh": 0,
      "name": "road_barrier_mid_poly_concreteRoadBarrier_low_0"
    }
  ],
  "samplers": [
    {
      "magFilter": 9729,
      "minFilter": 9987,
      "wrapS": 10497,
      "wrapT": 10497
    }
  ],
  "scene": 0,
  "scenes": [
    {
      "name": "Sketchfab_Scene",
      "nodes": [
        0
      ]
    }
  ],
  "textures": [
    {
      "sampler": 0,
      "source": 0
    }
  ]
}
